<?xml version="1.0" encoding="UTF-8"?>
<svg id="Layer_1" xmlns="http://www.w3.org/2000/svg" version="1.1" viewBox="0 0 455 455">
  <!-- Generator: Adobe Illustrator 30.4.0, SVG Export Plug-In . SVG Version: 2.1.4 Build 226)  -->
  <defs>
    <style>
      .st0 {
        fill: #fff;
      }

      .st1 {
        fill: #34877c;
      }

      .st2 {
        fill: #999;
      }
    </style>
  </defs>
  <g>
    <path class="st1" d="M1148.23,405.73v-36.84c71.03-89.31,65.28-219.63-17.34-302.25-88.85-88.85-232.9-88.85-321.75,0-88.85,88.85-88.85,232.9,0,321.75,82.62,82.62,212.93,88.36,302.25,17.34h36.84Z"/>
    <g>
      <g>
        <path class="st0" d="M970.02,175.54v125.09l-103.98-93.5v-31.59l83.19,74.9v-74.9h20.79Z"/>
        <path class="st0" d="M1003.43,238.09l62.55,62.54h-29.4l-54.1-53.79-8.76-8.59,8.76-8.76,54.1-53.94h29.4l-62.55,62.55ZM982.49,229.48l54.1-53.94-54.1,53.94ZM1036.58,300.63l-54.1-53.79,54.1,53.79Z"/>
        <path class="st0" d="M1153.2,175.54v20.96h-83.34v-20.96h83.34ZM1090.65,227.76h62.55v20.79h-83.34v-20.79h20.79ZM1069.86,279.67h83.34v20.96h-83.34v-20.96Z"/>
      </g>
      <path class="st0" d="M866.38,248.56h-.04c0,8.45-3.28,15.8-9.38,21.9-6.1,6.1-13.44,9.22-22.05,9.22s-16.11-2.97-22.2-9.22c-5.93-5.95-8.91-13.29-8.91-21.9v-73.01h-20.79v73.01c0,14.23,5,26.74,15.16,36.91,10.17,10.16,22.52,15.16,36.74,15.16s26.74-5,36.91-15.16c6.15-6.06,10.37-12.92,12.81-20.5l-18.24-16.41Z"/>
    </g>
  </g>
  <g>
    <path class="st2" d="M1723.23,405.73v-36.84c71.03-89.31,65.28-219.63-17.34-302.25-88.85-88.85-232.9-88.85-321.75,0-88.85,88.85-88.85,232.9,0,321.75,82.62,82.62,212.93,88.36,302.25,17.34h36.84Z"/>
    <g>
      <g>
        <path class="st2" d="M1545.02,175.54v125.09l-103.98-93.5v-31.59l83.19,74.9v-74.9h20.79Z"/>
        <path class="st2" d="M1578.43,238.09l62.55,62.54h-29.4l-54.1-53.79-8.76-8.59,8.76-8.76,54.1-53.94h29.4l-62.55,62.55ZM1557.49,229.48l54.1-53.94-54.1,53.94ZM1611.58,300.63l-54.1-53.79,54.1,53.79Z"/>
        <path class="st2" d="M1728.2,175.54v20.96h-83.34v-20.96h83.34ZM1665.65,227.76h62.55v20.79h-83.34v-20.79h20.79ZM1644.86,279.67h83.34v20.96h-83.34v-20.96Z"/>
      </g>
      <path class="st2" d="M1441.38,248.56h-.04c0,8.45-3.28,15.8-9.38,21.9-6.1,6.1-13.44,9.22-22.05,9.22s-16.11-2.97-22.2-9.22c-5.93-5.95-8.91-13.29-8.91-21.9v-73.01h-20.79v73.01c0,14.23,5,26.74,15.16,36.91,10.17,10.16,22.52,15.16,36.74,15.16s26.74-5,36.91-15.16c6.15-6.06,10.37-12.92,12.81-20.5l-18.24-16.41Z"/>
    </g>
  </g>
  <path class="st1" d="M416.02,337.69c48.77-83.42,37.43-192.31-34.1-263.84-85.07-85.07-223-85.07-308.07,0s-85.07,223,0,308.07c71.53,71.53,180.42,82.87,263.84,34.1h78.34v-78.34Z"/>
  <g>
    <polygon class="st0" points="309.38 157.37 277.76 128.9 277.76 178.88 309.38 207.31 309.38 157.37"/>
    <path class="st0" d="M278.29,244.44h-.06c0,13.38-5.2,25-14.85,34.65-9.65,9.65-21.27,14.59-34.89,14.59s-25.48-4.69-35.14-14.59c-9.39-9.41-14.1-21.03-14.1-34.65v-115.54h-32.9v115.54c0,22.52,7.92,42.31,23.99,58.4,16.1,16.08,35.64,23.99,58.14,23.99s42.31-7.92,58.4-23.99c9.73-9.6,16.4-20.45,20.26-32.44l-28.87-25.96Z"/>
  </g>
</svg>