<?xml version="1.0" encoding="UTF-8"?>
<svg id="Capa_1" xmlns="http://www.w3.org/2000/svg" version="1.1" viewBox="0 0 236.63 224.5">
  <!-- Generator: Adobe Illustrator 29.0.0, SVG Export Plug-In . SVG Version: 2.1.0 Build 186)  -->
  <defs>
    <style>
      .st0 {
        fill: #34877c;
      }
    </style>
  </defs>
  <path class="st0" d="M191.27,39.31C150.98-.97,85.66-.97,45.38,39.31c-40.29,40.29-40.29,105.6,0,145.89,37.46,37.46,96.55,40.07,137.05,7.86h16.7v-16.71c32.21-40.5,29.6-99.59-7.86-137.05ZM73.8,138.53c-4.61,4.61-10.28,6.88-16.74,6.88s-12.05-2.27-16.66-6.88c-4.61-4.61-6.88-10.28-6.88-16.73v-33.11h9.43v33.11c0,3.9,1.35,7.23,4.04,9.93,2.77,2.83,6.17,4.18,10.07,4.18s7.23-1.41,10-4.18c2.77-2.77,4.25-6.1,4.25-9.93h.02l8.27,7.44c-1.11,3.44-3.02,6.55-5.81,9.3ZM118.32,145.27v.14l-47.15-42.39v-14.32l37.72,33.96v-33.96h9.43v56.57ZM161.83,145.41h-13.33l-24.53-24.39-3.97-3.9,3.97-3.97,24.53-24.46h13.33l-28.36,28.36,28.36,28.36ZM201.38,145.41h-37.79v-9.5h37.79v9.5ZM201.38,121.8h-37.79v-9.43h37.79v9.43ZM163.59,98.19v-9.5h37.79v9.5h-37.79Z"/>
</svg>